<svg height="200px" width="200px" version="1.1" id="Layer_1" xmlns="http://www.w3.org/2000/svg" xmlns:xlink="http://www.w3.org/1999/xlink" viewBox="-42.63 -42.63 558.91 558.91" xml:space="preserve" fill="#000000"><g id="SVGRepo_bgCarrier" stroke-width="0"></g><g id="SVGRepo_tracerCarrier" stroke-linecap="round" stroke-linejoin="round"></g><g id="SVGRepo_iconCarrier"> <circle style="fill:#404040;" cx="236.827" cy="236.827" r="236.827"></circle> <g> <path style="fill:#FFFFFF;" d="M421.487,220.971c-32.306,0-64.612,0-96.919,0c10.033-10.033,20.07-20.067,30.104-30.1 c12.782-12.778-7.128-32.538-19.939-19.726c-17.999,17.995-35.993,35.99-53.992,53.984c-5.422,5.419-5.277,14.453,0.105,19.835 c17.999,17.999,35.993,35.993,53.992,53.992c12.782,12.782,32.542-7.128,19.726-19.939c-9.996-9.996-19.992-19.992-29.988-29.988 c32.235,0,64.47,0,96.705,0C439.396,249.026,439.557,220.971,421.487,220.971z"></path> <path style="fill:#FFFFFF;" d="M193.011,225.021c-17.999-17.999-35.993-35.99-53.992-53.984 c-12.782-12.782-32.542,7.128-19.726,19.939c10,10,19.999,19.995,29.995,29.995c-32.239,0-64.474,0-96.713,0 c-18.111,0-18.272,28.054-0.202,28.054c32.302,0,64.601,0,96.904,0c-10.03,10.033-20.063,20.059-30.092,30.092 c-12.782,12.782,7.128,32.542,19.939,19.726c17.999-17.999,35.993-35.993,53.992-53.992 C198.541,239.434,198.396,230.399,193.011,225.021z"></path> <circle style="fill:#FFFFFF;" cx="236.827" cy="236.79" r="24.098"></circle> </g> </g></svg>
