<svg width="30" height="26" viewBox="0 0 30 26" fill="none" xmlns="http://www.w3.org/2000/svg">
<g clip-path="url(#clip0_3511_4030)">
<path d="M4.96023 10.341L0.269351 9.04401C0.0392256 8.98018 -0.0633606 9.0997 0.0406119 9.31567L7.70408 24.8244C7.83077 25.0488 8.0665 25.1936 8.32791 25.2074C8.0752 25.2015 7.85855 25.0289 7.80112 24.7877L4.96023 10.341Z" fill="#F46060"/>
<path d="M8.23508 25.1961C8.0357 25.1551 7.89603 24.9786 7.90514 24.7792L8.7758 6.70812L4.09559 4.93216C3.87239 4.84659 3.72822 4.96476 3.77674 5.19566L7.79701 24.7873C7.85485 25.025 8.06758 25.1957 8.31687 25.2043C8.2894 25.2041 8.26201 25.2014 8.23508 25.1961Z" fill="#FFA52E"/>
<path d="M9.28034 2.04747C9.1975 1.99099 9.08874 1.98674 9.00158 2.03658C8.91442 2.08642 8.8647 2.18129 8.87415 2.27974L7.90374 24.7794C7.89463 24.9788 8.0343 25.1554 8.23368 25.1964C8.14322 25.1798 8.06495 25.1247 8.01998 25.046C7.97501 24.9674 7.96798 24.8732 8.00078 24.7889L13.8705 4.31656L9.28034 2.04747Z" fill="#87CC25"/>
<path opacity="0.4" d="M7.90514 24.7792L8.48323 11.3228L4.82617 10.3096L7.80117 24.7873C7.85901 25.0251 8.07175 25.1957 8.32103 25.2043C8.29218 25.2044 8.26338 25.2017 8.23508 25.1962C8.03571 25.1551 7.89603 24.9786 7.90514 24.7792Z" fill="#F98526"/>
<path opacity="0.4" d="M12.6671 8.1922L8.68431 6.67773L7.90521 24.7794C7.8961 24.9788 8.03577 25.1553 8.23515 25.1963C8.14469 25.1797 8.06641 25.1246 8.02144 25.046C7.97647 24.9673 7.96944 24.8731 8.00225 24.7889L12.6671 8.1922Z" fill="#74B502"/>
<path d="M29.7434 8.73277L15.251 0.553287C15.1625 0.495026 15.0502 0.483782 14.9514 0.523297C14.8527 0.562811 14.7805 0.647898 14.7589 0.750235L8.00208 24.7997C7.96928 24.884 7.97631 24.9781 8.02128 25.0568C8.06625 25.1355 8.14452 25.1906 8.23498 25.2072C8.26328 25.2127 8.29208 25.2155 8.32093 25.2153L23.5203 25.1977C23.7774 25.1847 24.0047 25.0299 24.1067 24.7984L29.9694 9.35486C30.0535 9.12123 29.9593 8.86178 29.7434 8.73277Z" fill="#1D7FF9"/>
<path fill-rule="evenodd" clip-rule="evenodd" d="M27.732 10.5988L16.3643 5.18745C16.3089 5.16164 16.2479 5.19832 16.2257 5.27031L15.9706 6.18034C15.9477 6.24506 15.9736 6.31666 16.033 6.35284L27.3909 11.4572C27.4228 11.4708 27.4658 11.4409 27.4866 11.3879L27.7444 10.7224C27.7736 10.6735 27.7638 10.6137 27.732 10.5988ZM26.7851 13.0437L15.4355 8.50028C15.4056 8.49024 15.3727 8.49388 15.3458 8.51019C15.3189 8.52651 15.301 8.55379 15.2968 8.58449L15.0584 9.45107C15.0388 9.51214 15.0653 9.57836 15.1222 9.60998L26.4704 13.8695C26.5037 13.8817 26.5453 13.8505 26.5661 13.8002L26.8128 13.1605C26.8281 13.1089 26.817 13.0573 26.7851 13.045V13.0437ZM25.8757 15.3948L14.5482 11.6447C14.5191 11.6383 14.4886 11.6438 14.4638 11.6599C14.4389 11.6761 14.4219 11.7015 14.4165 11.7302L14.185 12.5452C14.1647 12.6036 14.1937 12.6675 14.2516 12.6919L25.5707 16.1826C25.6026 16.1935 25.6442 16.1623 25.6636 16.1134L25.902 15.4981C25.9159 15.4546 25.9076 15.4057 25.8757 15.3962V15.3948ZM24.9995 17.6564L13.6998 14.6356C13.6402 14.6248 13.5828 14.6629 13.5709 14.7211L13.3505 15.5021C13.3403 15.5288 13.3417 15.5583 13.3543 15.5839C13.3668 15.6095 13.3895 15.6291 13.417 15.638L24.7043 18.4156C24.7375 18.4251 24.7777 18.3925 24.7958 18.3464L25.0259 17.7542C25.0439 17.712 25.0328 17.6659 24.9995 17.6577V17.6564Z" fill="white"/>
</g>
<defs>
<clipPath id="clip0_3511_4030">
<rect width="30" height="25" fill="white" transform="translate(0 0.5)"/>
</clipPath>
</defs>
</svg>
