<svg width="64" height="26" viewBox="0 0 64 26" fill="none" xmlns="http://www.w3.org/2000/svg">
<path fill-rule="evenodd" clip-rule="evenodd" d="M63.2167 13.0464C63.2167 5.89226 57.4008 0.0927124 50.2266 0.0927124C45.396 0.0927124 41.1899 2.72856 38.9519 6.6302L42.3526 13.3005C42.3499 13.2155 42.3397 13.1321 42.3397 13.0464C42.3397 8.73097 45.871 5.23237 50.2266 5.23237C54.5826 5.23237 58.1138 8.73097 58.1138 13.0464C58.1138 17.3617 54.5826 20.8603 50.2266 20.8603C48.384 20.8603 46.693 20.2293 45.3505 19.1803L48.7847 25.9155C49.2585 25.9679 49.7388 26 50.2266 26C57.4008 26 63.2167 20.2004 63.2167 13.0464" fill="#797979"/>
<path fill-rule="evenodd" clip-rule="evenodd" d="M0 25.9997H4.66497V0.0371399H0V25.9997Z" fill="#797979"/>
<path fill-rule="evenodd" clip-rule="evenodd" d="M32.8338 0H31.3087L20.6634 20.8443H13.5444V0.0371509H8.87402V25.9998H18.0305V25.9998H23.87L31.941 10.1997L40.0504 25.9998H46.034L32.8338 0Z" fill="#797979"/>
</svg>
