<svg width="64" height="26" viewBox="0 0 64 26" fill="none" xmlns="http://www.w3.org/2000/svg">
<g opacity="0.801223">
<path fill-rule="evenodd" clip-rule="evenodd" d="M63.2164 13.0464C63.2164 5.89234 57.4005 0.092804 50.2264 0.092804C45.3958 0.092804 41.1897 2.72864 38.9517 6.63028L42.3523 13.3006C42.3497 13.2156 42.3395 13.1322 42.3395 13.0464C42.3395 8.73104 45.8707 5.23245 50.2264 5.23245C54.5823 5.23245 58.1135 8.73104 58.1135 13.0464C58.1135 17.3618 54.5823 20.8604 50.2264 20.8604C48.3837 20.8604 46.6927 20.2293 45.3502 19.1803L48.7844 25.9156C49.2582 25.9679 49.7385 26 50.2264 26C57.4005 26 63.2164 20.2005 63.2164 13.0464" fill="white"/>
<path fill-rule="evenodd" clip-rule="evenodd" d="M0 25.9999H4.66496V0.037384H0V25.9999Z" fill="white"/>
<path fill-rule="evenodd" clip-rule="evenodd" d="M32.8334 0H31.3083L20.663 20.8443H13.544V0.0371508H8.87366V25.9997H18.0302V25.9997H23.8696L31.9406 10.1996L40.0499 25.9997H46.0336L32.8334 0Z" fill="white"/>
</g>
</svg>
