<?xml version="1.0" encoding="UTF-8" standalone="no"?>
<svg
   width="115"
   height="48"
   viewBox="0 0 115 48"
   fill="none"
   version="1.1"
   id="svg15"
   sodipodi:docname="logo2.svg"
   inkscape:version="1.1.1 (3bf5ae0d25, 2021-09-20)"
   xmlns:inkscape="http://www.inkscape.org/namespaces/inkscape"
   xmlns:sodipodi="http://sodipodi.sourceforge.net/DTD/sodipodi-0.dtd"
   xmlns="http://www.w3.org/2000/svg"
   xmlns:svg="http://www.w3.org/2000/svg">
  <defs
     id="defs19" />
  <sodipodi:namedview
     id="namedview17"
     pagecolor="#ffffff"
     bordercolor="#999999"
     borderopacity="1"
     inkscape:pageshadow="0"
     inkscape:pageopacity="0"
     inkscape:pagecheckerboard="0"
     showgrid="false"
     inkscape:zoom="9.2"
     inkscape:cx="57.445652"
     inkscape:cy="23.967391"
     inkscape:window-width="2560"
     inkscape:window-height="1377"
     inkscape:window-x="-8"
     inkscape:window-y="-8"
     inkscape:window-maximized="1"
     inkscape:current-layer="svg15" />
  <g
     opacity="0.801223"
     id="g13"
     transform="matrix(0.53111822,0,0,0.53111822,0.03388414,0)">
    <mask
       id="mask0_790:481"
       maskUnits="userSpaceOnUse"
       x="0"
       y="0"
       width="115"
       height="48">
      <path
         fill-rule="evenodd"
         clip-rule="evenodd"
         d="M 0,0 H 114.592 V 59.8118 H 42 0 v -4.9632 z"
         fill="#ffffff"
         id="path2" />
    </mask>
    <g
       mask="url(#mask0_790:481)"
       id="g11">
      <path
         fill-rule="evenodd"
         clip-rule="evenodd"
         d="m 114.52,23.6193 c 0,-12.9518 -10.529,-23.451331 -23.5174,-23.451331 -8.7453,0 -16.3601,4.771931 -20.4118,11.835531 l 6.1566,12.0759 c -0.0048,-0.1539 -0.0232,-0.3048 -0.0232,-0.4601 0,-7.8126 6.3929,-14.14649 14.2784,-14.14649 7.886,0 14.2794,6.33389 14.2794,14.14649 0,7.8125 -6.3934,14.1464 -14.2794,14.1464 -3.336,0 -6.3973,-1.1424 -8.8278,-3.0416 l 6.2172,12.1935 c 0.8579,0.0949 1.7275,0.1529 2.6106,0.1529 12.9884,0 23.5174,-10.4995 23.5174,-23.4512 z"
         fill="#ffffff"
         id="path5" />
      <path
         fill-rule="evenodd"
         clip-rule="evenodd"
         d="M 0.0722656,47.0701 H 8.51773 V 0.0673828 H 0.0722656 Z"
         fill="#ffffff"
         id="path7" />
      <path
         fill-rule="evenodd"
         clip-rule="evenodd"
         d="m 59.5144,0 h -2.761 L 37.481,37.7366 H 24.5927 V 0.0672581 H 16.1376 V 47.07 h 16.577 10.5717 L 57.8981,18.4655 72.5793,47.07 h 10.8328 z"
         fill="#ffffff"
         id="path9" />
    </g>
  </g>
</svg>
