<?xml version="1.0" standalone="no"?>
<!DOCTYPE svg PUBLIC "-//W3C//DTD SVG 20010904//EN"
 "http://www.w3.org/TR/2001/REC-SVG-20010904/DTD/svg10.dtd">
<svg version="1.0" xmlns="http://www.w3.org/2000/svg"
 width="512.000000pt" height="512.000000pt" viewBox="0 0 512.000000 512.000000"
 preserveAspectRatio="xMidYMid meet">
<metadata>
Created by potrace 1.11, written by Peter Selinger 2001-2013
</metadata>
<g transform="translate(0.000000,512.000000) scale(0.100000,-0.100000)"
fill="#000000" stroke="none">
<path d="M2160 2808 l-376 -743 -252 -3 -252 -2 0 740 0 740 -165 0 -165 0 0
-920 0 -920 531 2 530 3 163 320 c334 659 399 785 405 785 4 0 133 -249 287
-552 l281 -553 212 -3 212 -2 -465 922 -465 923 -53 3 -53 2 -375 -742z"/>
<path d="M320 2620 l0 -920 165 0 165 0 0 920 0 920 -165 0 -165 0 0 -920z"/>
<path d="M3745 3530 c-254 -40 -487 -185 -625 -389 l-43 -64 114 -229 114
-229 13 78 c45 274 276 475 547 477 179 1 329 -70 442 -209 181 -223 163 -535
-42 -741 -119 -119 -254 -170 -425 -161 -100 5 -180 28 -252 74 -21 12 -40 23
-43 23 -3 0 47 -104 111 -231 l115 -232 132 6 c102 4 153 11 222 32 292 86
519 304 614 590 74 223 60 472 -38 681 -49 104 -86 158 -170 246 -163 174
-381 272 -626 283 -55 2 -127 0 -160 -5z"/>
</g>
</svg>
