<?xml version="1.0" encoding="UTF-8"?>
<svg viewBox="0 0 512 512" xmlns="http://www.w3.org/2000/svg">
  <!-- Background -->
  <rect x="0" y="0" width="512" height="512" rx="64" fill="#111111"/>

  <!-- Define arrowhead marker -->
  <defs>
    <marker id="arrowhead" 
            markerWidth="10" 
            markerHeight="10" 
            refX="8" 
            refY="5"
            orient="auto">
      <path d="M 0 0 L 10 5 L 0 10 Z" 
            fill="#00cc00"/>
    </marker>
  </defs>
  
  <!-- State 1 (initial) -->
  <circle cx="156" cy="256" r="30" fill="none" stroke="#00cc00" stroke-width="3"/>
  
  <!-- State 2 (accept) -->
  <circle cx="356" cy="176" r="34" fill="none" stroke="#00cc00" stroke-width="3"/>
  <circle cx="356" cy="176" r="28" fill="none" stroke="#00cc00" stroke-width="3"/>
  
  <!-- State 3 (accept) -->
  <circle cx="356" cy="336" r="34" fill="none" stroke="#00cc00" stroke-width="3"/>
  <circle cx="356" cy="336" r="28" fill="none" stroke="#00cc00" stroke-width="3"/>

  <!-- Initial arrow -->
  <path d="M 96 256 L 126 256" 
        stroke="#00cc00" stroke-width="3" fill="none"
        marker-end="url(#arrowhead)"/>

  <!-- State transitions -->
  <!-- 1 -> 2 -->
  <path d="M 180 240
           Q 260 200, 320 176" 
        stroke="#00cc00" stroke-width="3" fill="none"
        marker-end="url(#arrowhead)"/>
        
  <!-- 1 -> 3 -->
  <path d="M 180 272
           Q 260 312, 320 336" 
        stroke="#00cc00" stroke-width="3" fill="none"
        marker-end="url(#arrowhead)"/>

  <!-- Self loops -->
  <path d="M 356 142
           Q 396 142, 396 176
           Q 396 210, 356 210
           Q 316 210, 316 176
           Q 316 142, 356 142" 
        stroke="#00cc00" stroke-width="2" fill="none"
        marker-end="url(#arrowhead)"/>
        
  <path d="M 356 302
           Q 396 302, 396 336
           Q 396 370, 356 370
           Q 316 370, 316 336
           Q 316 302, 356 302" 
        stroke="#00cc00" stroke-width="2" fill="none"
        marker-end="url(#arrowhead)"/>
</svg>