<?xml version="1.0" encoding="UTF-8" standalone="no"?>
<svg
   xmlns:dc="http://purl.org/dc/elements/1.1/"
   xmlns:cc="http://creativecommons.org/ns#"
   xmlns:rdf="http://www.w3.org/1999/02/22-rdf-syntax-ns#"
   xmlns:svg="http://www.w3.org/2000/svg"
   xmlns="http://www.w3.org/2000/svg"
   xmlns:sodipodi="http://sodipodi.sourceforge.net/DTD/sodipodi-0.dtd"
   xmlns:inkscape="http://www.inkscape.org/namespaces/inkscape"
   width="193.78735mm"
   height="106.21159mm"
   viewBox="0 0 193.78735 106.21159"
   version="1.1"
   id="svg8"
   inkscape:version="1.0.1 (3bc2e813f5, 2020-09-07)"
   sodipodi:docname="logo.svg">
  <defs
     id="defs2" />
  <sodipodi:namedview
     id="base"
     pagecolor="#ffffff"
     bordercolor="#666666"
     borderopacity="1.0"
     inkscape:pageopacity="0.0"
     inkscape:pageshadow="2"
     inkscape:zoom="0.7"
     inkscape:cx="-82.986767"
     inkscape:cy="373.06647"
     inkscape:document-units="mm"
     inkscape:current-layer="layer1"
     inkscape:document-rotation="0"
     showgrid="false"
     inkscape:window-width="1920"
     inkscape:window-height="1009"
     inkscape:window-x="-8"
     inkscape:window-y="-8"
     inkscape:window-maximized="1" />
  <metadata
     id="metadata5">
    <rdf:RDF>
      <cc:Work
         rdf:about="">
        <dc:format>image/svg+xml</dc:format>
        <dc:type
           rdf:resource="http://purl.org/dc/dcmitype/StillImage" />
        <dc:title></dc:title>
      </cc:Work>
    </rdf:RDF>
  </metadata>
  <g
     inkscape:label="Layer 1"
     inkscape:groupmode="layer"
     id="layer1"
     transform="translate(-8.4109803,-2.9912776)">
    <path
       style="fill:#000000;stroke-width:0.264583"
       d="M 39.414437,108.93407 C 32.877782,107.68513 29.487888,103.33375 28.238382,94.588097 27.761111,91.247527 27.4869,84.27905 27.718741,81.382477 c 0.546917,-6.8331 2.881963,-10.967855 7.444192,-13.1817 2.282764,-1.107726 4.606498,-1.603116 9.476056,-2.020179 8.772229,-0.751316 13.687306,-2.463773 18.790388,-6.546743 3.26985,-2.616203 6.797166,-7.092098 7.869774,-9.986142 0.242813,-0.655143 0.582287,-1.191168 0.754388,-1.191168 0.172101,0 1.426339,0.555353 2.7872,1.23412 4.365577,2.177447 7.157513,5.606013 8.259579,10.142963 1.555877,6.405181 1.151594,16.475135 -0.932441,23.225299 -0.717918,2.325333 -2.487676,5.805902 -4.146974,8.155826 -5.394036,7.639129 -17.017335,14.891537 -27.756287,17.318647 -3.061084,0.69184 -8.311523,0.88572 -10.850179,0.40067 z M 44.638989,94.8563 v -3.606493 l -0.992187,0.163997 c -0.545703,0.0902 -1.557734,0.165309 -2.248958,0.16691 l -1.256771,0.0029 v 3.439583 3.439583 h 2.248958 2.248958 z m 12.757327,-2.875798 c 0.101312,-9.118139 0.134906,-8.447876 -0.428871,-8.55645 -0.277111,-0.05337 -1.387025,-0.01426 -2.466477,0.08689 l -1.962642,0.183915 0.06579,5.934797 c 0.03619,3.26414 0.117816,6.289272 0.181404,6.722514 l 0.115612,0.787712 h 2.218928 2.218928 z m 12.49984,-3.902604 c 0.09982,-3.674401 0.143031,-8.288073 0.09602,-10.252604 l -0.08548,-3.571875 H 67.657738 65.40878 l -0.06925,10.252604 -0.06925,10.252604 h 2.222193 2.222193 z m -27.10925,-2.012212 c 0.363802,-0.266613 0.788922,-0.867947 0.944714,-1.336302 0.207888,-0.62498 0.665469,-1.066517 1.719791,-1.659485 0.790094,-0.444365 3.103412,-1.79179 5.140703,-2.994281 3.541279,-2.090203 3.762341,-2.181289 5.027083,-2.071315 1.828395,0.158986 2.925104,-0.535961 3.319859,-2.103683 0.243208,-0.96587 0.646531,-1.454716 2.570999,-3.116183 1.255398,-1.083831 3.252822,-2.888843 4.438719,-4.011136 2.020601,-1.912229 2.214408,-2.031087 3.082242,-1.890258 1.780206,0.288888 3.389222,-1.07007 3.389222,-2.862503 0,-2.02193 -1.097597,-3.128578 -3.102988,-3.128578 -1.92749,0 -3.16344,1.654971 -2.841125,3.804335 0.166317,1.109075 0.158597,1.121928 -1.780206,2.9636 -1.070986,1.017331 -2.92726,2.595713 -4.12505,3.507515 -2.077582,1.581528 -2.20477,1.638935 -2.763713,1.247436 -0.334915,-0.234585 -1.138603,-0.410387 -1.876094,-0.410387 -1.102138,0 -1.402062,0.119766 -2.057794,0.821732 -0.647917,0.693595 -0.767612,1.041204 -0.767612,2.229231 v 1.407501 l -3.241146,1.981132 c -1.78263,1.089622 -3.9131,2.307722 -4.734377,2.706885 l -1.493232,0.725752 -0.702005,-0.552198 c -2.738115,-2.153804 -6.116976,0.808572 -4.496493,3.942241 0.778081,1.50464 2.862884,1.88768 4.348503,0.798949 z M 21.05889,90.708184 c -3.314287,-1.129744 -5.880502,-3.648485 -7.768777,-7.625053 -1.346886,-2.836444 -1.980867,-6.1751 -1.985145,-10.454129 -0.01106,-11.05958 4.673097,-18.593482 13.368326,-21.501353 3.631406,-1.214422 6.53506,-1.60396 14.861449,-1.993733 8.53313,-0.399455 9.317061,-0.56242 11.368005,-2.36324 0.960192,-0.843089 2.490512,-3.07663 2.107967,-3.07663 -0.05813,0 -0.745162,0.292602 -1.526733,0.650226 -3.163279,1.44743 -4.437602,1.599446 -13.327284,1.589842 -6.853089,-0.0074 -8.498517,-0.08355 -10.004438,-0.463005 -1.496398,-0.377052 -3.113309,-0.454808 -9.524999,-0.458047 -5.602631,-0.0028 -7.897225,-0.09362 -8.358597,-0.330729 C 9.0349196,44.048288 8.5399583,43.025243 8.4319289,40.885957 8.3060031,38.392264 8.7472434,36.742905 9.7706597,35.881755 10.532824,35.240437 10.640334,35.227379 15.158251,35.227379 h 4.609906 v -1.048408 c 0,-1.423202 0.934956,-3.819739 1.93416,-4.957773 0.99777,-1.136396 2.391923,-2.043864 3.778499,-2.459458 0.994277,-0.298014 1.03687,-0.357661 1.10295,-1.544569 0.172955,-3.106608 1.470173,-6.22006 3.268508,-7.844747 2.460313,-2.222746 5.787678,-3.198625 12.265636,-3.59737 5.565854,-0.342601 12.266665,0.0043 15.29694,0.79185 6.28446,1.633358 10.811817,6.170411 12.716772,12.744016 1.558951,5.379611 1.419351,12.072561 -0.372063,17.838334 -2.021657,6.506824 -6.492576,11.696451 -12.826166,14.888 -3.474897,1.751031 -6.95611,2.531258 -13.328043,2.987157 -8.323315,0.595513 -12.004667,2.364115 -15.196235,7.300594 -2.685835,4.154249 -3.465785,7.29257 -3.475013,13.98258 -0.0036,2.619375 0.08413,5.268516 0.194995,5.886979 l 0.201565,1.124479 -1.259898,-0.0068 C 23.37782,91.30846 22.022476,91.036648 21.05889,90.708189 Z M 13.682741,40.122171 c 0,-1.091406 -0.0893,-1.986 -0.198437,-1.987987 -0.109141,-0.0021 -0.466329,-0.07541 -0.79375,-0.163152 -0.581568,-0.155853 -0.595313,-0.109956 -0.595313,1.987989 v 2.147525 h 0.79375 0.79375 z m 14.647277,1.611902 C 29.97974,41.23758 32.371523,39.705428 31.896191,39.449619 31.70145,39.344815 30.455815,39.00678 29.128112,38.698432 27.143671,38.237557 25.867263,38.137796 21.955073,38.137796 h -4.759041 l -0.166846,1.389062 c -0.09177,0.763985 -0.167881,1.656953 -0.169146,1.984375 l -0.0023,0.595313 h 5.117324 c 3.637235,0 5.475285,-0.107731 6.354953,-0.372473 z M 47.116606,30.893817 c 1.613879,-0.674322 2.926342,-3.199111 2.285476,-4.396581 -0.261374,-0.488381 -0.552223,-0.530273 -3.681672,-0.530273 -3.901588,0 -4.151992,0.119179 -3.917867,1.864696 0.359656,2.681436 2.825099,4.102113 5.314063,3.062158 z m 79.807794,50.00588 c -4.21078,-0.944108 -7.23918,-4.345199 -8.39167,-9.424403 -0.70014,-3.085562 -0.62427,-11.59053 0.12781,-14.328274 0.76475,-2.783877 1.72095,-4.558757 3.40997,-6.329523 2.09736,-2.198862 4.00299,-3.007358 7.10841,-3.015869 2.16383,-0.0059 2.54956,0.07358 4.12883,0.851048 3.40521,1.676381 5.6512,5.09824 6.47046,9.858036 0.54254,3.152071 0.39069,10.580253 -0.26995,13.205829 -1.68179,6.683907 -6.86396,10.465625 -12.58386,9.183156 z m 3.82742,-5.8317 c 1.10117,-0.460097 2.16048,-2.000588 2.67856,-3.895262 0.5392,-1.971936 0.76947,-8.297311 0.40791,-11.205087 -0.51317,-4.127058 -2.18135,-6.484019 -4.58916,-6.484019 -1.87585,0 -3.36605,1.201081 -4.17597,3.365775 -1.13586,3.03586 -1.34251,10.567688 -0.39041,14.229015 0.94189,3.622003 3.27622,5.156507 6.06907,3.989578 z m 59.99702,5.905278 c -4.03699,-0.679956 -7.03326,-3.975455 -7.61728,-8.377984 l -0.17324,-1.305972 1.02106,-0.168683 c 0.56158,-0.09278 1.87582,-0.169994 2.92053,-0.171595 l 1.89947,-0.0029 0.29932,1.441831 c 0.41886,2.017586 1.59621,3.056083 3.46471,3.056083 0.72977,0 1.66045,-0.172508 2.06817,-0.383352 1.58247,-0.818324 2.22206,-2.873359 1.49048,-4.788969 -0.4884,-1.278853 -0.76353,-1.472594 -6.58326,-4.635793 -4.30895,-2.342044 -5.75838,-4.487143 -5.75838,-8.522181 0,-2.319809 0.15781,-3.073834 0.99327,-4.745755 0.84148,-1.683993 2.25889,-3.044607 4.04033,-3.878415 1.27536,-0.59694 1.82283,-0.690573 3.99163,-0.682694 2.12694,0.0077 2.73922,0.113377 3.98082,0.686879 0.80701,0.372761 1.90589,1.062845 2.44196,1.533525 1.2873,1.130263 2.55208,3.738483 2.63832,5.440714 l 0.067,1.322917 h -2.73657 -2.73658 l -0.3612,-1.058333 c -0.52096,-1.526466 -1.71733,-2.513542 -3.0465,-2.513542 -2.13233,0 -3.42227,1.348073 -3.42227,3.576516 0,1.982414 1.04318,2.919066 6.4884,5.825818 3.13293,1.67241 4.34308,2.676506 5.2932,4.391924 0.73835,1.333055 0.78611,1.596443 0.78611,4.335264 0,2.761824 -0.046,3.009363 -0.86962,4.682426 -1.88478,3.828518 -5.94144,5.723546 -10.5799,4.942282 z M 95.174404,64.292318 V 48.113511 l 5.490106,0.153143 c 6.1089,0.170402 7.39328,0.423032 9.50037,1.868646 3.55075,2.436072 5.09407,7.413265 4.77114,15.38687 -0.17168,4.239101 -0.6384,6.660758 -1.73554,9.00531 -1.03454,2.210747 -2.40728,3.661685 -4.36236,4.61087 -2.14157,1.039717 -4.17268,1.328364 -9.364237,1.33078 l -4.299479,0.002 z m 9.918786,10.326655 c 1.48601,-0.412544 2.59918,-1.705343 3.19726,-3.713184 0.41357,-1.388403 0.50076,-2.550644 0.5031,-6.706536 0.003,-5.330645 -0.31868,-7.27711 -1.46982,-8.893749 -0.71341,-1.001884 -2.31182,-1.557292 -4.48177,-1.557292 h -1.84672 v 10.583333 10.583333 l 1.52135,-0.0016 c 0.83675,-7.94e-4 1.99621,-0.133305 2.5766,-0.294428 z M 143.59315,64.331545 V 48.191962 l 3.77031,0.0072 c 7.32362,0.01392 10.10602,0.579941 12.06217,2.453778 2.38214,2.281899 3.29655,6.928148 2.29442,11.658163 -0.47213,2.228389 -1.33818,3.753672 -2.92385,5.149434 -1.62252,1.428197 -3.13651,1.91203 -6.53794,2.089359 l -2.84428,0.148283 v 5.386488 5.38649 h -2.91041 -2.91042 z m 10.58746,-1.022112 c 1.46136,-0.781383 1.97301,-1.920552 1.97692,-4.401547 0.003,-1.645373 -0.11455,-2.317097 -0.52584,-3.015351 -0.92294,-1.566907 -1.7669,-1.998233 -4.1189,-2.105043 l -2.09881,-0.09531 v 5.055097 5.0551 h 1.92236 c 1.369,0 2.18774,-0.141896 2.84427,-0.492945 z m 11.10837,1.01205 V 48.171838 l 7.87136,0.07621 7.87135,0.07621 0.0754,2.711979 0.0754,2.711979 h -5.03635 -5.03633 v 3.96875 3.96875 h 4.23333 4.23333 v 2.645833 2.645833 h -4.23333 -4.23333 v 3.96875 3.96875 h 5.02708 5.02708 v 2.778124 2.778125 h -7.9375 -7.9375 z M 13.072128,32.647692 c -0.06197,-0.109141 -0.322117,-0.83984 -0.578096,-1.623774 -0.650717,-1.992818 -0.421421,-4.059449 0.795919,-7.173621 1.625447,-4.158176 1.53529,-5.433285 -0.757639,-10.715625 -1.25915,-2.900764 -0.810123,-6.6393663 1.12359,-9.3550151 0.808167,-1.1349645 1.07652,-1.0432811 0.782074,0.2672001 -0.373563,1.6626151 0.132683,3.4971961 1.76418,6.393196 3.471513,6.162127 3.375766,9.204417 -0.482031,15.316096 -2.105392,3.335445 -2.661425,4.720023 -2.448819,6.097793 0.143158,0.927735 0.06156,1.252932 -0.199178,0.79375 z"
       id="path865" />
  </g>
</svg>
