<svg width="16" height="16" viewBox="0 0 16 16" fill="none" xmlns="http://www.w3.org/2000/svg">
<g clip-path="url(#clip0_6759_310550)">
<path class="jp-icon3" fill-rule="evenodd" clip-rule="evenodd" d="M8.03734 8.48493L8.54502 8.66249L7.42349 11.9234L6.91581 11.7458L8.03734 8.48493ZM6.47451 9.33695L5.64888 10.1768L6.45811 11.015L6.07271 11.3934L5.07965 10.3644C4.97752 10.2584 4.97833 10.0892 5.08153 9.98431L6.09287 8.95526L6.47451 9.33695ZM10.468 9.98431C10.5712 10.0892 10.572 10.2584 10.4699 10.3644L9.47627 11.3934L9.09114 11.015L9.90037 10.1768L9.07502 9.33695L9.45665 8.95526L10.468 9.98431ZM12.3966 11.0874L11.4699 11.5544C11.3791 11.6005 11.3216 11.6943 11.3216 11.7971V13.4122L9.13979 14.7665L8.09646 14.1655V12.764H7.55895V14.1655L6.51563 14.7665L4.33384 13.4122V11.7968C4.33384 11.694 4.27633 11.6002 4.18522 11.5544L3.25881 11.0871L3.25854 10.0315L3.25881 8.84683L4.22795 8.10188C4.2946 8.05065 4.33384 7.97095 4.33384 7.88637V6.38022L6.33179 5.20479L7.55895 5.89579V7.61339H8.09646V5.89579L9.32335 5.20479L11.3216 6.38022V7.88637C11.3216 7.97095 11.3605 8.05065 11.4272 8.10188L12.3966 8.84656L12.3969 10.0315L12.3966 11.0874ZM12.8282 8.49686L11.8591 7.75191V6.22461C11.8591 6.12838 11.8083 6.03919 11.7258 5.9904L9.46176 4.65855C9.37952 4.61003 9.27793 4.60921 9.19542 4.65584L7.82771 5.42627L6.45999 4.65584C6.37695 4.60948 6.27562 4.61003 6.19365 4.65855L3.92963 5.9904C3.84685 6.03919 3.79632 6.12838 3.79632 6.22461V7.75218L2.82691 8.49686C2.76026 8.54809 2.72129 8.62806 2.72129 8.71264L2.72102 10.0315L2.72129 11.2546C2.72129 11.3574 2.7788 11.4512 2.86964 11.4972L3.79632 11.9643V13.5637C3.79632 13.6578 3.84443 13.7451 3.92398 13.7944L6.36969 15.3128C6.45327 15.3643 6.55809 15.3662 6.64382 15.3171L7.82771 14.6351L9.01132 15.3171C9.05271 15.341 9.09867 15.3529 9.14462 15.3529C9.19354 15.3529 9.24218 15.3393 9.28572 15.3128L11.7312 13.7944C11.8107 13.7451 11.8591 13.6578 11.8591 13.5637V11.9646L12.7855 11.4972C12.8766 11.4514 12.9341 11.3576 12.9341 11.2549L12.9344 10.0315L12.9341 8.71237C12.9341 8.62779 12.8949 8.54809 12.8282 8.49686ZM5.14012 1.78504C5.14012 2.0095 4.95951 2.19167 4.73698 2.19167C4.51418 2.19167 4.33384 2.0095 4.33384 1.78504C4.33384 1.56031 4.51418 1.37841 4.73698 1.37841C4.95951 1.37841 5.14012 1.56031 5.14012 1.78504ZM3.79632 1.78504C3.79632 2.0095 3.61572 2.19167 3.39319 2.19167C3.17039 2.19167 2.99005 2.0095 2.99005 1.78504C2.99005 1.56031 3.17039 1.37841 3.39319 1.37841C3.61572 1.37841 3.79632 1.56031 3.79632 1.78504ZM2.45253 1.78504C2.45253 2.0095 2.27192 2.19167 2.04939 2.19167C1.82659 2.19167 1.64625 2.0095 1.64625 1.78504C1.64625 1.56031 1.82659 1.37841 2.04939 1.37841C2.27192 1.37841 2.45253 1.56031 2.45253 1.78504ZM0.839978 2.73384L0.841322 0.86145C0.841322 0.849522 0.855297 0.836239 0.875185 0.836239H14.7816C14.8015 0.836239 14.8154 0.849522 14.8154 0.86145V2.73384H0.839978ZM14.7816 0.294067H0.873842C0.559394 0.294067 0.302998 0.548346 0.30246 0.860908L0.294129 10.8404C0.29386 11.1516 0.548643 11.4064 0.863897 11.4086L1.91501 11.408V10.8664L0.873304 10.8667C0.853685 10.8667 0.839978 10.8534 0.839978 10.8415L0.846159 3.27601H14.8154V10.8385C14.8154 10.8534 14.7998 10.8661 14.7816 10.8661L13.7404 10.8664V11.4086L14.7816 11.4083C15.0966 11.4083 15.353 11.1527 15.353 10.8385V0.86145C15.353 0.548617 15.0966 0.294067 14.7816 0.294067Z" fill="#616161"/>
</g>
<defs>
<clipPath id="clip0_6759_310550">
<rect width="16" height="16" fill="white"/>
</clipPath>
</defs>
</svg>
