<svg width="16" height="16" viewBox="0 0 16 16" fill="none" xmlns="http://www.w3.org/2000/svg">
<path class="jp-icon3" d="M9.72668 5.33337L8.00001 7.06004L6.27334 5.33337L5.33334 6.27337L7.06001 8.00004L5.33334 9.72671L6.27334 10.6667L8.00001 8.94004L9.72668 10.6667L10.6667 9.72671L8.94001 8.00004L10.6667 6.27337L9.72668 5.33337ZM8.00001 1.33337C4.31334 1.33337 1.33334 4.31337 1.33334 8.00004C1.33334 11.6867 4.31334 14.6667 8.00001 14.6667C11.6867 14.6667 14.6667 11.6867 14.6667 8.00004C14.6667 4.31337 11.6867 1.33337 8.00001 1.33337ZM8.00001 13.3334C5.06001 13.3334 2.66668 10.94 2.66668 8.00004C2.66668 5.06004 5.06001 2.66671 8.00001 2.66671C10.94 2.66671 13.3333 5.06004 13.3333 8.00004C13.3333 10.94 10.94 13.3334 8.00001 13.3334Z" fill="#616161"/>
</svg>
