<svg width="16" height="16" viewBox="0 0 16 16" fill="none" xmlns="http://www.w3.org/2000/svg">
<path class="jp-icon3" d="M12.6667 1.99996H9.88C9.6 1.22663 8.86667 0.666626 8 0.666626C7.13333 0.666626 6.4 1.22663 6.12 1.99996H3.33333C2.6 1.99996 2 2.59996 2 3.33329V12.6666C2 13.4 2.6 14 3.33333 14H12.6667C13.4 14 14 13.4 14 12.6666V3.33329C14 2.59996 13.4 1.99996 12.6667 1.99996ZM8 1.99996C8.36667 1.99996 8.66667 2.29996 8.66667 2.66663C8.66667 3.03329 8.36667 3.33329 8 3.33329C7.63333 3.33329 7.33333 3.03329 7.33333 2.66663C7.33333 2.29996 7.63333 1.99996 8 1.99996ZM9.33333 11.3333H4.66667V9.99996H9.33333V11.3333ZM11.3333 8.66663H4.66667V7.33329H11.3333V8.66663ZM11.3333 5.99996H4.66667V4.66663H11.3333V5.99996Z" fill="#616161"/>
</svg>
