<svg width="16" height="16" viewBox="0 0 16 16" fill="none" xmlns="http://www.w3.org/2000/svg">
<path class="jp-icon3" d="M10.1667 10.1666V11.4166C10.1667 11.7481 10.035 12.0661 9.80054 12.3005C9.56612 12.5349 9.24818 12.6666 8.91666 12.6666H3.91666C3.58514 12.6666 3.26719 12.5349 3.03277 12.3005C2.79835 12.0661 2.66666 11.7481 2.66666 11.4166V3.91663C2.66666 3.58511 2.79835 3.26716 3.03277 3.03274C3.26719 2.79832 3.58514 2.66663 3.91666 2.66663H8.66666C9.35697 2.66663 10.1667 3.22631 10.1667 3.91663V5.16663M12.1667 10.1666L14.6667 7.66663L12.1667 5.16663M6.16666 7.66663H14.1667" stroke="#616161" stroke-linecap="round" stroke-linejoin="round"/>
</svg>
