<svg height="200px" width="200px" version="1.1" id="Layer_1" xmlns="http://www.w3.org/2000/svg" xmlns:xlink="http://www.w3.org/1999/xlink" viewBox="-42.63 -42.63 558.91 558.91" xml:space="preserve" fill="#000000"><g id="SVGRepo_bgCarrier" stroke-width="0"></g><g id="SVGRepo_tracerCarrier" stroke-linecap="round" stroke-linejoin="round"></g><g id="SVGRepo_iconCarrier"> <circle style="fill:#404040;" cx="236.827" cy="236.827" r="236.827"></circle> <g> <path style="fill:#FFFFFF;" d="M431.251,225.029c-17.999-17.999-35.993-36.001-53.992-53.996 c-12.778-12.782-32.542,7.128-19.726,19.939c9.996,10,19.992,19.995,29.991,29.995c-32.235,0-64.474,0-96.709,0 c-18.111,0-18.272,28.054-0.202,28.054c32.306,0,64.612,0,96.919,0c-10.033,10.033-20.07,20.067-30.104,30.1 c-12.782,12.778,7.128,32.538,19.939,19.726c17.999-17.995,35.993-35.99,53.992-53.984 C436.782,239.437,436.633,230.406,431.251,225.029z"></path> <path style="fill:#FFFFFF;" d="M183.247,220.964c-32.302,0-64.605,0-96.907,0c10.033-10.033,20.063-20.067,30.096-30.1 c12.782-12.782-7.128-32.542-19.939-19.726c-17.999,17.999-35.993,35.997-53.992,53.996c-5.422,5.422-5.277,14.453,0.105,19.835 c17.999,17.999,35.993,35.99,53.992,53.984c12.782,12.782,32.542-7.128,19.726-19.939c-10-10-19.999-19.996-29.995-29.995 c32.239,0,64.474,0,96.713,0C201.155,249.018,201.316,220.964,183.247,220.964z"></path> <circle style="fill:#FFFFFF;" cx="236.827" cy="236.79" r="24.098"></circle> </g> </g></svg>
