<?xml version="1.0" encoding="UTF-8"?>
<svg xmlns="http://www.w3.org/2000/svg" xmlns:xlink="http://www.w3.org/1999/xlink"
     width="600" height="200" viewBox="-100 -100 600 200">
<defs>
<linearGradient x1="59.99028026243717" y1="1.0799416809447777" x2="-59.99028026243717" y2="-1.0799416809447717" gradientUnits="userSpaceOnUse" id="d0">
<stop offset="0" stop-color="#FFB6C1" />
<stop offset="1" stop-color="#FFD700" />
</linearGradient>
</defs>
<rect x="-100" y="-100" width="600" height="200" fill="#ffffff" fill-opacity="1.0" />
<path d="M48.61145676374217,35.16996262873798 A60.0,60.0,0,0,0,49.84580513236272,-33.39754048888215 L64.79954667207154,-43.416802635546794 A78.0,78.0,0,0,1,63.194893792864825,45.72095141735937 Z" fill="#FFB6C1" fill-opacity="0.9" />
<path d="M46.26259315373182,-38.20696892835502 A60.0,60.0,0,1,0,44.857464427587935,39.84730712517074 L58.314703755864315,51.80149926272196 A78.0,78.0,0,1,1,60.14137109985137,-49.66905960686152 Z" fill="#FFD700" fill-opacity="0.9" />
<path d="M46.66699849319248,33.76316412358845 A57.599999999999994,57.599999999999994,0,0,0,47.8519729270682,-32.06163886932686 C33.49638104894774,-22.443147208528803,31.08846259930778,-25.67508311985457,44.41208942758254,-36.678690171220815 A57.599999999999994,57.599999999999994,0,1,0,43.06316585048442,38.253414840163906 C30.14421609533909,26.777390388114732,32.666898945234735,23.634214886511916,46.66699849319248,33.76316412358845 Z" fill="url(#d0)" fill-opacity="0.6" />
<text x="84.0" y="0" font-size="100" text-anchor="start" dominant-baseline="middle" transform="rotate(-358.968676)" font-family="Arial" fill="black">RaChord</text>
</svg>